<svg xmlns="http://www.w3.org/2000/svg" xmlns:xlink="http://www.w3.org/1999/xlink" contentStyleType="text/css" data-diagram-type="DESCRIPTION" height="590px" preserveAspectRatio="none" style="width:992px;height:590px;background:#FFFFFF;" version="1.1" viewBox="0 0 992 590" width="992px" zoomAndPan="magnify"><defs/><g><!--cluster db--><g class="cluster" data-entity="db" data-source-line="26" data-uid="ent0002" id="cluster_db"><path d="M6,318.706 C6,308.706 150.5,308.706 150.5,308.706 C150.5,308.706 295,308.706 295,318.706 L295,563.256 C295,573.256 150.5,573.256 150.5,573.256 C150.5,573.256 6,573.256 6,563.256 L6,318.706" fill="none" style="stroke:#181818;stroke-width:1;"/><path d="M6,318.706 C6,328.706 150.5,328.706 150.5,328.706 C150.5,328.706 295,328.706 295,318.706" fill="none" style="stroke:#181818;stroke-width:1;"/><text fill="#000000" font-family="Arial" font-size="12" font-weight="bold" lengthAdjust="spacing" textLength="79.1046" x="110.9477" y="343.5341">&#1041;&#1072;&#1079;&#1072; &#1076;&#1072;&#1085;&#1085;&#1099;&#1093;</text></g><!--cluster ??????? ???????--><g class="cluster" data-entity="&#1042;&#1085;&#1077;&#1096;&#1085;&#1080;&#1077; &#1089;&#1077;&#1088;&#1074;&#1080;&#1089;&#1099;" data-source-line="32" data-uid="ent0006" id="cluster_&#1042;&#1085;&#1077;&#1096;&#1085;&#1080;&#1077; &#1089;&#1077;&#1088;&#1074;&#1080;&#1089;&#1099;"><path d="M411.5,335.706 L525.5408,335.706 A3.75,3.75 0 0 1 528.0408,338.206 L535.0408,358.0501 L737.5,358.0501 A2.5,2.5 0 0 1 740,360.5501 L740,430.556 A2.5,2.5 0 0 1 737.5,433.056 L411.5,433.056 A2.5,2.5 0 0 1 409,430.556 L409,338.206 A2.5,2.5 0 0 1 411.5,335.706" fill="none" style="stroke:#000000;stroke-width:1.5;"/><line style="stroke:#000000;stroke-width:1.5;" x1="409" x2="535.0408" y1="358.0501" y2="358.0501"/><text fill="#000000" font-family="Arial" font-size="12" font-weight="bold" lengthAdjust="spacing" textLength="113.0408" x="413" y="350.5341">&#1042;&#1085;&#1077;&#1096;&#1085;&#1080;&#1077; &#1089;&#1077;&#1088;&#1074;&#1080;&#1089;&#1099;</text></g><!--cluster frontend--><g class="cluster" data-entity="frontend" data-source-line="37" data-uid="ent0009" id="cluster_frontend"><path d="M276.5,6.016 L330.5644,6.016 A3.75,3.75 0 0 1 333.0644,8.516 L340.0644,28.3601 L519.5,28.3601 A2.5,2.5 0 0 1 522,30.8601 L522,100.866 A2.5,2.5 0 0 1 519.5,103.366 L276.5,103.366 A2.5,2.5 0 0 1 274,100.866 L274,8.516 A2.5,2.5 0 0 1 276.5,6.016" fill="none" style="stroke:#000000;stroke-width:1.5;"/><line style="stroke:#000000;stroke-width:1.5;" x1="274" x2="340.0644" y1="28.3601" y2="28.3601"/><text fill="#000000" font-family="Arial" font-size="12" font-weight="bold" lengthAdjust="spacing" textLength="53.0644" x="278" y="20.8441">frontend</text></g><!--cluster bakend--><g class="cluster" data-entity="bakend" data-source-line="41" data-uid="ent0011" id="cluster_bakend"><path d="M184.5,153.366 L230.2603,153.366 A3.75,3.75 0 0 1 232.7603,155.866 L239.7603,175.7101 L559.5,175.7101 A2.5,2.5 0 0 1 562,178.2101 L562,248.206 A2.5,2.5 0 0 1 559.5,250.706 L184.5,250.706 A2.5,2.5 0 0 1 182,248.206 L182,155.866 A2.5,2.5 0 0 1 184.5,153.366" fill="none" style="stroke:#000000;stroke-width:1.5;"/><line style="stroke:#000000;stroke-width:1.5;" x1="182" x2="239.7603" y1="175.7101" y2="175.7101"/><text fill="#000000" font-family="Arial" font-size="12" font-weight="bold" lengthAdjust="spacing" textLength="44.7603" x="186" y="168.1941">bakend</text></g><!--entity products--><g class="entity" data-entity="products" data-source-line="27" data-uid="ent0003" id="entity_products"><path d="M32.68,366.706 L73.68,366.706 A3.75,3.75 0 0 1 76.18,369.206 L83.18,387.706 L101.3243,387.706 A2.5,2.5 0 0 1 103.8243,390.206 L103.8243,418.5501 A2.5,2.5 0 0 1 101.3243,421.0501 L32.68,421.0501 A2.5,2.5 0 0 1 30.18,418.5501 L30.18,369.206 A2.5,2.5 0 0 1 32.68,366.706" fill="#F1F1F1" style="stroke:#181818;stroke-width:0.5;"/><line style="stroke:#181818;stroke-width:0.5;" x1="30.18" x2="83.18" y1="387.706" y2="387.706"/><text fill="#000000" font-family="Arial" font-size="12" lengthAdjust="spacing" textLength="43.6443" x="40.18" y="407.5341">&#1058;&#1086;&#1074;&#1072;&#1088;&#1099;</text></g><!--entity users--><g class="entity" data-entity="users" data-source-line="28" data-uid="ent0004" id="entity_users"><path d="M141.19,366.706 L182.19,366.706 A3.75,3.75 0 0 1 184.69,369.206 L191.69,387.706 L248.8106,387.706 A2.5,2.5 0 0 1 251.3106,390.206 L251.3106,418.5501 A2.5,2.5 0 0 1 248.8106,421.0501 L141.19,421.0501 A2.5,2.5 0 0 1 138.69,418.5501 L138.69,369.206 A2.5,2.5 0 0 1 141.19,366.706" fill="#F1F1F1" style="stroke:#181818;stroke-width:0.5;"/><line style="stroke:#181818;stroke-width:0.5;" x1="138.69" x2="191.69" y1="387.706" y2="387.706"/><text fill="#000000" font-family="Arial" font-size="12" lengthAdjust="spacing" textLength="82.6206" x="148.69" y="407.5341">&#1055;&#1086;&#1083;&#1100;&#1079;&#1086;&#1074;&#1072;&#1090;&#1077;&#1083;&#1080;</text></g><!--entity orders--><g class="entity" data-entity="orders" data-source-line="29" data-uid="ent0005" id="entity_orders"><path d="M33.7,494.916 L74.7,494.916 A3.75,3.75 0 0 1 77.2,497.416 L84.2,515.916 L100.3043,515.916 A2.5,2.5 0 0 1 102.8043,518.416 L102.8043,546.7601 A2.5,2.5 0 0 1 100.3043,549.2601 L33.7,549.2601 A2.5,2.5 0 0 1 31.2,546.7601 L31.2,497.416 A2.5,2.5 0 0 1 33.7,494.916" fill="#F1F1F1" style="stroke:#181818;stroke-width:0.5;"/><line style="stroke:#181818;stroke-width:0.5;" x1="31.2" x2="84.2" y1="515.916" y2="515.916"/><text fill="#000000" font-family="Arial" font-size="12" lengthAdjust="spacing" textLength="41.6043" x="41.2" y="535.7441">&#1047;&#1072;&#1082;&#1072;&#1079;&#1099;</text></g><!--entity payment--><g class="entity" data-entity="payment" data-source-line="33" data-uid="ent0007" id="entity_payment"><path d="M598.7647,379.5344 C602.0809,373.876 607.6272,372.989 611.6732,378.7062 C614.7591,374.0758 619.8368,373.9865 622.8821,378.7547 C625.0538,373.7761 629.73,371.6942 633.6485,376.9099 C638.6226,371.1283 642.8046,371.4859 647.2949,377.471 C649.94,371.1616 655.6044,370.899 658.8727,376.884 C662.1111,371.6013 666.8386,372.1065 669.542,377.4226 C672.9376,371.4092 677.6714,371.5623 680.9503,377.5337 C685.1398,371.172 689.8917,371.6025 693.601,378.0094 C697.3079,372.4427 702.4875,374.0967 705.1716,379.1263 C709.6514,373.677 713.8096,374.8878 717.2704,380.2651 C725.7056,381.827 730.291,388.2596 723.9577,396.0703 C726.8216,403.4113 724.8626,408.7134 716.2294,409.3773 C714.9389,414.7015 710.5636,416.8633 706.3292,412.3358 C702.8064,419.7479 697.5882,418.5873 693.1126,413.3298 C690.2895,418.5401 684.9176,419.9737 681.0023,414.5767 C679.3553,420.3847 674.5761,421.3109 670.5976,416.966 C666.8834,422.823 661.9534,423.7139 657.2404,418.1323 C653.3283,423.2868 647.6262,422.6987 645.6075,416.2363 C641.7643,420.9381 635.8268,421.5666 633.4763,414.6745 C629.7568,419.5074 625.2555,419.0981 622.7817,413.4085 C618.0815,418.4169 614.0728,418.3495 611.1782,411.6232 C606.7925,417.49 602.548,417.8855 598.5522,411.2301 C588.8622,409.9991 585.6806,404.8398 590.1724,395.8712 C584.2224,386.3871 587.8106,380.1278 598.7647,379.5344" fill="#F1F1F1" style="stroke:#181818;stroke-width:0.5;"/><text fill="#000000" font-family="Arial" font-size="12" lengthAdjust="spacing" textLength="104.0768" x="604.96" y="398.5341">&#1055;&#1083;&#1072;&#1090;&#1077;&#1078;&#1085;&#1099;&#1081; &#1096;&#1083;&#1102;&#1079;</text></g><!--entity delivery--><g class="entity" data-entity="delivery" data-source-line="34" data-uid="ent0008" id="entity_delivery"><path d="M434.4827,378.9158 C438.6973,373.8931 442.723,373.2637 445.9983,379.8477 C448.805,373.309 453.2088,373.04 457.769,378.0625 C461.2607,372.934 464.7733,374.32 467.8519,378.5095 C471.0089,372.5129 475.6902,370.876 480.7384,376.3929 C484.3852,371.4797 487.8458,371.1591 492.1548,375.5833 C495.3088,371.3186 500.238,372.0114 502.2946,376.8109 C505.5898,371.3969 511.7638,371.8249 514.8615,377.0442 C518.7172,372.0993 522.5312,372.8947 525.1265,378.295 C530.073,372.8268 533.9735,373.2648 537.776,379.5285 C540.8088,374.3067 545.5682,374.1394 548.195,379.9133 C557.5328,382.3403 558.7847,388.4082 553.2114,395.6027 C558.3692,401.6785 556.2487,408.4977 548.1534,409.8775 C545.1226,416.1247 541.1081,415.9884 536.6596,411.3782 C534.7801,418.1509 529.3969,418.6551 525.2475,413.5612 C522.7671,420.4396 517.9242,421.805 513.0498,415.8336 C510.135,420.821 506.7582,421.0918 502.8867,416.8918 C500.7368,423.78 495.7171,424.4805 491.1527,419.2247 C486.7886,423.4287 483.4514,422.9559 480.2617,417.8506 C475.1893,421.8437 471.2074,422.478 468.4507,415.3838 C463.7762,421.0154 458.4011,419.026 456.0279,412.9433 C452.4825,417.3959 449.0791,417.7764 445.3413,413.1703 C440.1611,417.9701 434.7633,416.3438 433.8877,409.0825 C426.2552,405.4305 426.5724,398.4673 433.3429,394.285 C427.1699,389.1726 426.3558,382.9675 434.4827,378.9158" fill="#F1F1F1" style="stroke:#181818;stroke-width:0.5;"/><text fill="#000000" font-family="Arial" font-size="12" lengthAdjust="spacing" textLength="100.0687" x="439.97" y="398.5341">&#1057;&#1083;&#1091;&#1078;&#1073;&#1072; &#1076;&#1086;&#1089;&#1090;&#1072;&#1074;&#1082;&#1080;</text></g><!--entity ui--><g class="entity" data-entity="ui" data-source-line="38" data-uid="ent0010" id="entity_ui"><rect fill="#F1F1F1" height="46.3441" rx="2.5" ry="2.5" style="stroke:#181818;stroke-width:0.5;" width="215.1532" x="290.42" y="41.016"/><rect fill="#F1F1F1" height="10" style="stroke:#181818;stroke-width:0.5;" width="15" x="485.5732" y="46.016"/><rect fill="#F1F1F1" height="2" style="stroke:#181818;stroke-width:0.5;" width="4" x="483.5732" y="48.016"/><rect fill="#F1F1F1" height="2" style="stroke:#181818;stroke-width:0.5;" width="4" x="483.5732" y="52.016"/><text fill="#000000" font-family="Arial" font-size="12" lengthAdjust="spacing" textLength="175.1532" x="305.42" y="73.8441">&#1055;&#1086;&#1083;&#1100;&#1079;&#1086;&#1074;&#1072;&#1090;&#1077;&#1083;&#1100;&#1089;&#1082;&#1080;&#1081; &#1080;&#1085;&#1090;&#1077;&#1088;&#1092;&#1077;&#1081;&#1089;</text></g><!--entity server--><g class="entity" data-entity="server" data-source-line="42" data-uid="ent0012" id="entity_server"><rect fill="#F1F1F1" height="46.3441" rx="2.5" ry="2.5" style="stroke:#181818;stroke-width:0.5;" width="123.6166" x="422.19" y="188.366"/><rect fill="#F1F1F1" height="10" style="stroke:#181818;stroke-width:0.5;" width="15" x="525.8066" y="193.366"/><rect fill="#F1F1F1" height="2" style="stroke:#181818;stroke-width:0.5;" width="4" x="523.8066" y="195.366"/><rect fill="#F1F1F1" height="2" style="stroke:#181818;stroke-width:0.5;" width="4" x="523.8066" y="199.366"/><text fill="#000000" font-family="Arial" font-size="12" lengthAdjust="spacing" textLength="83.6166" x="437.19" y="221.1941">&#1041;&#1080;&#1079;&#1085;&#1077;&#1089; &#1083;&#1086;&#1075;&#1080;&#1082;&#1072;</text></g><!--entity auth--><g class="entity" data-entity="auth" data-source-line="43" data-uid="ent0013" id="entity_auth"><rect fill="#F1F1F1" height="46.3441" rx="2.5" ry="2.5" style="stroke:#181818;stroke-width:0.5;" width="189.209" x="198.4" y="188.366"/><rect fill="#F1F1F1" height="10" style="stroke:#181818;stroke-width:0.5;" width="15" x="367.609" y="193.366"/><rect fill="#F1F1F1" height="2" style="stroke:#181818;stroke-width:0.5;" width="4" x="365.609" y="195.366"/><rect fill="#F1F1F1" height="2" style="stroke:#181818;stroke-width:0.5;" width="4" x="365.609" y="199.366"/><text fill="#000000" font-family="Arial" font-size="12" lengthAdjust="spacing" textLength="149.209" x="213.4" y="221.1941">&#1057;&#1080;&#1089;&#1090;&#1077;&#1084;&#1072; &#1072;&#1091;&#1090;&#1077;&#1085;&#1090;&#1080;&#1092;&#1080;&#1082;&#1072;&#1094;&#1080;&#1080;</text></g><g class="entity" data-entity="GMN20" data-source-line="54" data-uid="ent0021" id="entity_GMN20"><path d="M318.78,484.396 L318.78,559.7725 L549.2175,559.7725 L549.2175,494.396 L539.2175,484.396 L318.78,484.396" fill="#FAFAFA" style="stroke:#181818;stroke-width:0.5;"/><path d="M539.2175,484.396 L539.2175,494.396 L549.2175,494.396 L539.2175,484.396" fill="#FAFAFA" style="stroke:#181818;stroke-width:1;"/><text fill="#000000" font-family="Arial" font-size="12" font-weight="bold" lengthAdjust="spacing" textLength="86.9406" x="324.78" y="502.2241">&#1057;&#1090;&#1088;&#1091;&#1082;&#1090;&#1091;&#1088;&#1072; &#1041;&#1044;:</text><text fill="#000000" font-family="Arial" font-size="12" lengthAdjust="spacing" textLength="204.9975" x="324.78" y="518.5682">- &#1058;&#1086;&#1074;&#1072;&#1088;&#1099; (&#1040;&#1088;&#1090;&#1080;&#1082;&#1091;&#1083;, &#1094;&#1077;&#1085;&#1072;, &#1086;&#1087;&#1080;&#1089;&#1072;&#1085;&#1080;&#1077;)</text><text fill="#000000" font-family="Arial" font-size="12" lengthAdjust="spacing" textLength="209.4375" x="324.78" y="534.9123">- &#1055;&#1086;&#1083;&#1100;&#1079;&#1086;&#1074;&#1072;&#1090;&#1077;&#1083;&#1080; (&#1083;&#1086;&#1075;&#1080;&#1085;, &#1093;&#1077;&#1096; &#1087;&#1072;&#1088;&#1086;&#1083;&#1103;)</text><text fill="#000000" font-family="Arial" font-size="12" lengthAdjust="spacing" textLength="148.765" x="324.78" y="551.2565">- &#1047;&#1072;&#1082;&#1072;&#1079;&#1099; (&#1089;&#1090;&#1072;&#1090;&#1091;&#1089;, &#1080;&#1089;&#1090;&#1086;&#1088;&#1080;&#1103;)</text></g><g class="entity" data-entity="GMN23" data-source-line="61" data-uid="ent0024" id="entity_GMN23"><path d="M584.54,492.566 L584.54,551.5984 A0,0 0 0 0 584.54,551.5984 L799.4614,551.5984 A0,0 0 0 0 799.4614,551.5984 L799.4614,502.566 L789.4614,492.566 L688.08,492.566 L663.26,417.446 L680.08,492.566 L584.54,492.566 A0,0 0 0 0 584.54,492.566" fill="#FAFAFA" style="stroke:#181818;stroke-width:0.5;"/><path d="M789.4614,492.566 L789.4614,502.566 L799.4614,502.566 L789.4614,492.566" fill="#FAFAFA" style="stroke:#181818;stroke-width:0.5;"/><text fill="#000000" font-family="Arial" font-size="12" font-weight="bold" lengthAdjust="spacing" textLength="77.4246" x="590.54" y="510.3941">&#1048;&#1085;&#1090;&#1077;&#1075;&#1088;&#1072;&#1094;&#1080;&#1103;:</text><text fill="#000000" font-family="Arial" font-size="12" lengthAdjust="spacing" textLength="193.9214" x="590.54" y="526.7382">&#1055;&#1086;&#1076;&#1076;&#1077;&#1088;&#1078;&#1082;&#1072; &#1052;&#1048;&#1056; &#1080; &#1076;&#1088;&#1091;&#1075;&#1080;&#1093; &#1089;&#1080;&#1089;&#1090;&#1077;&#1084;</text><text fill="#000000" font-family="Arial" font-size="12" lengthAdjust="spacing" textLength="86.0766" x="590.54" y="543.0823">&#1095;&#1077;&#1088;&#1077;&#1079; REST API</text></g><g class="entity" data-entity="GMN26" data-source-line="67" data-uid="ent0027" id="entity_GMN26"><path d="M758.69,364.366 L758.69,423.3984 L985.3115,423.3984 L985.3115,374.366 L975.3115,364.366 L758.69,364.366" fill="#FAFAFA" style="stroke:#181818;stroke-width:0.5;"/><path d="M975.3115,364.366 L975.3115,374.366 L985.3115,374.366 L975.3115,364.366" fill="#FAFAFA" style="stroke:#181818;stroke-width:1;"/><text fill="#000000" font-family="Arial" font-size="12" font-weight="bold" lengthAdjust="spacing" textLength="77.4246" x="764.69" y="382.1941">&#1048;&#1085;&#1090;&#1077;&#1075;&#1088;&#1072;&#1094;&#1080;&#1103;:</text><text fill="#000000" font-family="Arial" font-size="12" lengthAdjust="spacing" textLength="205.6215" x="764.69" y="398.5382">&#1055;&#1086;&#1095;&#1090;&#1072; &#1056;&#1086;&#1089;&#1089;&#1080;&#1080;, &#1055;&#1042;&#1047; &#1084;&#1072;&#1088;&#1082;&#1077;&#1090;&#1087;&#1083;&#1077;&#1081;&#1089;&#1086;&#1074;,</text><text fill="#000000" font-family="Arial" font-size="12" lengthAdjust="spacing" textLength="74.1125" x="764.69" y="414.8823">5posts, CDEK</text></g><!--link ui to server--><g class="link" data-entity-1="ui" data-entity-2="server" data-source-line="45" data-uid="lnk14" id="link_ui_server"><path d="M411.25,87.586 C427.36,114.816 451.355,155.362 467.535,182.712" fill="none" id="ui-to-server" style="stroke:#181818;stroke-width:1;"/><polygon fill="#181818" points="470.59,187.876,469.4502,178.0933,468.0442,183.5727,462.5648,182.1667,470.59,187.876" style="stroke:#181818;stroke-width:1;"/><text fill="#000000" font-family="Arial" font-size="12" lengthAdjust="spacing" textLength="70.0445" x="439.42" y="133.1941">HTTP/HTTPS</text></g><!--link server to db--><g class="link" data-entity-1="server" data-entity-2="db" data-source-line="46" data-uid="lnk15" id="link_server_db"><path d="M459.45,235.016 C433.455,258.806 391.2725,297.421 355.135,330.5035 C337.0662,347.0448 320.5087,362.2029 308.2416,373.4332 C305.1748,376.2408 302.3761,378.8029 299.889,381.0797 C298.6455,382.2181 297.4798,383.2852 296.3975,384.2761 C296.1269,384.5238 295.8615,384.7667 295.6015,385.0048 C295.4714,385.1239 299.7683,381.1903 299.6409,381.3069" fill="none" id="server-to-db" style="stroke:#181818;stroke-width:1;"/><polygon fill="#181818" points="295.2153,385.3583,304.5547,382.2316,298.9033,381.9821,299.1528,376.3308,295.2153,385.3583" style="stroke:#181818;stroke-width:1;"/><text fill="#000000" font-family="Arial" font-size="12" lengthAdjust="spacing" textLength="22.2482" x="421.28" y="280.5341">SQL</text></g><!--link server to payment--><g class="link" data-entity-1="server" data-entity-2="payment" data-source-line="47" data-uid="lnk16" id="link_server_payment"><path d="M510.99,235.116 C529.12,250.686 553.21,272.206 573,292.706 C597.43,318.016 619.3531,344.696 635.7831,365.516" fill="none" id="server-to-payment" style="stroke:#181818;stroke-width:1;"/><polygon fill="#181818" points="639.5,370.226,637.0647,360.683,636.4026,366.301,630.7846,365.6389,639.5,370.226" style="stroke:#181818;stroke-width:1;"/><text fill="#000000" font-family="Arial" font-size="12" lengthAdjust="spacing" textLength="18.9961" x="564.87" y="280.5341">API</text></g><!--link server to delivery--><g class="link" data-entity-1="server" data-entity-2="delivery" data-source-line="48" data-uid="lnk17" id="link_server_delivery"><path d="M484.75,235.016 C485.9,269.666 487.901,329.7593 489.051,364.4093" fill="none" id="server-to-delivery" style="stroke:#181818;stroke-width:1;"/><polygon fill="#181818" points="489.25,370.406,492.9493,361.2783,489.0841,365.4088,484.9537,361.5437,489.25,370.406" style="stroke:#181818;stroke-width:1;"/><text fill="#000000" font-family="Arial" font-size="12" lengthAdjust="spacing" textLength="18.9961" x="487.29" y="280.5341">API</text></g><!--link ui to auth--><g class="link" data-entity-1="ui" data-entity-2="auth" data-source-line="49" data-uid="lnk18" id="link_ui_auth"><path d="M375.26,87.756 C366.31,97.156 356.22,108.416 348,119.366 C331.35,141.536 318.2177,163.7666 307.8077,182.7266" fill="none" id="ui-to-auth" style="stroke:#181818;stroke-width:1;"/><polygon fill="#181818" points="304.92,187.986,312.7578,182.022,307.3264,183.6032,305.7452,178.1718,304.92,187.986" style="stroke:#181818;stroke-width:1;"/><text fill="#000000" font-family="Arial" font-size="12" lengthAdjust="spacing" textLength="73.3205" x="349" y="133.1941">Auth request</text></g><!--link auth to db--><g class="link" data-entity-1="auth" data-entity-2="db" data-source-line="50" data-uid="lnk19" id="link_auth_db"><path d="M288.4,235.096 C286.65,244.786 284.86,256.256 284,266.706 C283.4325,273.5848 283.0502,280.681 282.816,287.8371 C282.6989,291.4151 282.6188,295.0081 282.5712,298.5964 C282.5474,300.3905 282.5317,302.1834 282.5235,303.9727 C282.5194,304.8673 282.5172,305.7611 282.5168,306.6536 C282.5166,307.0998 282.5168,307.5458 282.5175,307.9914 C282.5179,308.2142 282.503,302.4369 282.5036,302.6595" fill="none" id="auth-to-db" style="stroke:#181818;stroke-width:1;"/><polygon fill="#181818" points="282.5189,308.6595,286.4959,299.6493,282.5062,303.6595,278.496,299.6698,282.5189,308.6595" style="stroke:#181818;stroke-width:1;"/><text fill="#000000" font-family="Arial" font-size="12" lengthAdjust="spacing" textLength="97.4407" x="285" y="280.5341">Verify credentials</text></g><!--link db to GMN20--><g class="link" data-entity-1="db" data-entity-2="GMN20" data-source-line="54" data-uid="lnk22" id="link_db_GMN20"><path d="M295.1532,401.8811 C295.5059,402.1838 295.8687,402.4953 296.2412,402.8151 C296.9863,403.4547 297.7706,404.128 298.5919,404.8331 C305.1619,410.4732 314.0975,418.1441 324.2675,426.8748 C344.6075,444.336 369.885,466.036 391.05,484.206" fill="none" id="db-GMN20" style="stroke:#181818;stroke-width:1;stroke-dasharray:7.0,7.0;"/></g><!--link delivery to GMN26--><g class="link" data-entity-1="delivery" data-entity-2="GMN26" data-source-line="67" data-uid="lnk28" id="link_delivery_GMN26"><path d="M500.91,370.426 C516.01,341.266 546.38,293.206 589.5,275.706 C644.27,253.486 666.66,256.306 722.5,275.706 C772.66,293.136 818.69,335.166 846.05,364.086" fill="none" id="delivery-GMN26" style="stroke:#181818;stroke-width:1;stroke-dasharray:7.0,7.0;"/></g><!--SRC=[XLDTJrD147tlhvZq2PCIeealX90GnMWq1YtnVTkxfJUqT-lzqA0neQqL4uW8CS474y5VK87IGctz2xl_o3Exbz9IY6sos-xCcJbpPYPQzuEQ24MLgYfGnNAegfBYC96PQ6I9oi9JR_rWZKgY4erRF5aIIIL-f8BukG0mknJwefAzsIFllvDqzrucuubO54G4TxsdsxghswHFyMEW1sRRjB8a8l8Az3v3-9HKnPCXN7_feJxMRRDfjgr7BLHUKemZwpNX-HEUVRE3m0xHq1tTrpsBIY8PtW0vGFeBvf86Lw77VXyocPeeheirvheFWXtp6MTFTyZKyMSJyNkcpY37jbXHYMSfzDF4ProKFYS0- -QBxZhkOgCgWtW2SWHx4-w_dHn3X6s0qJ5uEUgUhFXlPBWnmQeKGbaPU2C2gbfJ0MBVfeFP0NE412KS0tw4f1zXEZTr9v4_aQ4WrZd-TFWzuBjMapgXtA4-mGD4j44WCxXEOOwiN4pa3vVPDatxXsdqGCBYpIVShcIHn6KRmnw9JxEpYsbecgV7gwihStpahJbzPnTCpppbNpox_fxg3kFIofCfKAhlc3NDo3JubQzGlavav5fdtqVvNidGBsrGCPGUSc0FxFm4AfPKK76iggHAy0HoeR2eZqm3kZVr1Uuc1WbgxEblymjpXKLupDBulDEC_egxmVe0qiyHD89gkfqZUFrbKUt-O33lEFGjEu18bvqQ84gB1veG06aiO3U5Z-q3pRX9j3phIEWwE0IYn_uO3k8Yfqgz6dAkzxkRDNt2jNABpUvbiPRiARwyK6USb_GF00wH2wjWPG9Zq-Ab6yqFW6RBGZgwIo-NywksRTVeXFvQERR2NsuFD-u_X1mbiyLbapwqkrZdeSonOLyV48ylS1V8tu1yVRS-h7NEuk_NL1H7ENhmSFdf5QL_]--></g></svg>