<svg xmlns="http://www.w3.org/2000/svg" xmlns:xlink="http://www.w3.org/1999/xlink" contentStyleType="text/css" data-diagram-type="ACTIVITY" height="657px" preserveAspectRatio="none" style="width:1058px;height:657px;background:#FFFFFF;" version="1.1" viewBox="0 0 1058 657" width="1058px" zoomAndPan="magnify"><defs><filter height="300%" id="f3k4ztjtq5pha" width="300%" x="-1" y="-1"><feGaussianBlur result="blurOut" stdDeviation="2"/><feColorMatrix in="blurOut" result="blurOut2" type="matrix" values="0 0 0 0 0 0 0 0 0 0 0 0 0 0 0 0 0 0 .4 0"/><feOffset dx="4" dy="4" in="blurOut2" result="blurOut3"/><feBlend in="SourceGraphic" in2="blurOut3" mode="normal"/></filter></defs><g><ellipse cx="358.4885" cy="20" fill="#222222" filter="url(#f3k4ztjtq5pha)" rx="10" ry="10" style="stroke:#222222;stroke-width:1;"/><path d="M467.3791,40 L467.3791,76.412 L447.3791,80.412 L467.3791,84.412 L467.3791,120.8241 A0,0 0 0 0 467.3791,120.8241 L667.1682,120.8241 A0,0 0 0 0 667.1682,120.8241 L667.1682,50 L657.1682,40 L467.3791,40 A0,0 0 0 0 467.3791,40" fill="#FFEBCD" filter="url(#f3k4ztjtq5pha)" style="stroke:#181818;stroke-width:0.5;"/><path d="M657.1682,40 L657.1682,50 L667.1682,50 L657.1682,40" fill="#FFEBCD" style="stroke:#181818;stroke-width:0.5;"/><text fill="#000000" font-family="Segoe UI" font-size="13" font-weight="bold" lengthAdjust="spacing" textLength="163.9172" x="473.3791" y="58.897">&#1044;&#1077;&#1081;&#1089;&#1090;&#1074;&#1080;&#1103; &#1087;&#1086;&#1083;&#1100;&#1079;&#1086;&#1074;&#1072;&#1090;&#1077;&#1083;&#1103;:</text><text fill="#000000" font-family="Segoe UI" font-size="13" lengthAdjust="spacing" textLength="103.9351" x="473.3791" y="76.603">- &#1042;&#1099;&#1073;&#1086;&#1088; &#1090;&#1086;&#1074;&#1072;&#1088;&#1086;&#1074;</text><text fill="#000000" font-family="Segoe UI" font-size="13" lengthAdjust="spacing" textLength="142.0382" x="473.3791" y="94.309">- &#1059;&#1082;&#1072;&#1079;&#1072;&#1085;&#1080;&#1077; &#1082;&#1086;&#1083;&#1080;&#1095;&#1077;&#1089;&#1090;&#1074;&#1072;</text><text fill="#000000" font-family="Segoe UI" font-size="13" lengthAdjust="spacing" textLength="178.7891" x="473.3791" y="112.0151">- &#1055;&#1088;&#1086;&#1089;&#1084;&#1086;&#1090;&#1088; &#1080;&#1090;&#1086;&#1075;&#1086;&#1074;&#1086;&#1081; &#1089;&#1091;&#1084;&#1084;&#1099;</text><rect fill="#F1F1F1" filter="url(#f3k4ztjtq5pha)" height="37.706" rx="7.5" ry="7.5" style="stroke:#181818;stroke-width:0.5;" width="177.7812" x="269.5979" y="61.559"/><text fill="#000000" font-family="Segoe UI" font-size="13" lengthAdjust="spacing" textLength="3.38" x="279.5979" y="85.456">&#160;</text><text fill="#000000" font-family="Segoe UI" font-size="13" font-weight="bold" lengthAdjust="spacing" textLength="154.4012" x="282.9779" y="85.456">1. &#1044;&#1086;&#1073;&#1072;&#1074;&#1083;&#1077;&#1085;&#1080;&#1077; &#1090;&#1086;&#1074;&#1072;&#1088;&#1086;&#1074;</text><path d="M465.6306,130.8241 L465.6306,176.0891 L445.6306,180.0891 L465.6306,184.0891 L465.6306,229.3541 A0,0 0 0 0 465.6306,229.3541 L652.3417,229.3541 A0,0 0 0 0 652.3417,229.3541 L652.3417,140.8241 L642.3417,130.8241 L465.6306,130.8241 A0,0 0 0 0 465.6306,130.8241" fill="#E6F3FF" filter="url(#f3k4ztjtq5pha)" style="stroke:#181818;stroke-width:0.5;"/><path d="M642.3417,130.8241 L642.3417,140.8241 L652.3417,140.8241 L642.3417,130.8241" fill="#E6F3FF" style="stroke:#181818;stroke-width:0.5;"/><text fill="#000000" font-family="Segoe UI" font-size="13" font-weight="bold" lengthAdjust="spacing" textLength="152.4512" x="471.6306" y="149.7211">&#1047;&#1072;&#1087;&#1086;&#1083;&#1085;&#1103;&#1077;&#1084;&#1099;&#1077; &#1076;&#1072;&#1085;&#1085;&#1099;&#1077;:</text><text fill="#000000" font-family="Segoe UI" font-size="13" lengthAdjust="spacing" textLength="165.7112" x="471.6306" y="167.4271">- &#1050;&#1086;&#1085;&#1090;&#1072;&#1082;&#1090;&#1085;&#1072;&#1103; &#1080;&#1085;&#1092;&#1086;&#1088;&#1084;&#1072;&#1094;&#1080;&#1103;</text><text fill="#000000" font-family="Segoe UI" font-size="13" lengthAdjust="spacing" textLength="106.2101" x="471.6306" y="185.1331">- &#1040;&#1076;&#1088;&#1077;&#1089; &#1076;&#1086;&#1089;&#1090;&#1072;&#1074;&#1082;&#1080;</text><text fill="#000000" font-family="Segoe UI" font-size="13" lengthAdjust="spacing" textLength="103.1291" x="471.6306" y="202.8391">- &#1057;&#1087;&#1086;&#1089;&#1086;&#1073; &#1086;&#1087;&#1083;&#1072;&#1090;&#1099;</text><text fill="#000000" font-family="Segoe UI" font-size="13" lengthAdjust="spacing" textLength="150.1761" x="471.6306" y="220.5451">- &#1050;&#1086;&#1084;&#1084;&#1077;&#1085;&#1090;&#1072;&#1088;&#1080;&#1080; &#1082; &#1079;&#1072;&#1082;&#1072;&#1079;&#1091;</text><rect fill="#F1F1F1" filter="url(#f3k4ztjtq5pha)" height="37.706" rx="7.5" ry="7.5" style="stroke:#181818;stroke-width:0.5;" width="174.2842" x="271.3464" y="161.2361"/><text fill="#000000" font-family="Segoe UI" font-size="13" lengthAdjust="spacing" textLength="3.38" x="281.3464" y="185.1331">&#160;</text><text fill="#000000" font-family="Segoe UI" font-size="13" font-weight="bold" lengthAdjust="spacing" textLength="150.9042" x="284.7264" y="185.1331">2. &#1054;&#1092;&#1086;&#1088;&#1084;&#1083;&#1077;&#1085;&#1080;&#1077; &#1079;&#1072;&#1082;&#1072;&#1079;&#1072;</text><polygon fill="#F1F1F1" filter="url(#f3k4ztjtq5pha)" points="292.6369,249.3541,424.3401,249.3541,436.3401,261.3541,424.3401,273.3541,292.6369,273.3541,280.6369,261.3541,292.6369,249.3541" style="stroke:#181818;stroke-width:0.5;"/><text fill="#000000" font-family="Segoe UI" font-size="13" font-weight="bold" lengthAdjust="spacing" textLength="131.7031" x="292.6369" y="266.3982">3. &#1054;&#1087;&#1083;&#1072;&#1090;&#1072; &#1091;&#1089;&#1087;&#1077;&#1096;&#1085;&#1072;?</text><text fill="#000000" font-family="Segoe UI" font-size="11" font-weight="bold" lengthAdjust="spacing" textLength="15.0919" x="265.5451" y="258.1312">&#1044;&#1072;</text><text fill="#000000" font-family="Segoe UI" font-size="11" font-weight="bold" lengthAdjust="spacing" textLength="20.4489" x="436.3401" y="258.1312">&#1053;&#1077;&#1090;</text><path d="M225.3042,283.3541 L225.3042,319.7662 L205.3042,323.7662 L225.3042,327.7662 L225.3042,364.1782 A0,0 0 0 0 225.3042,364.1782 L440.3943,364.1782 A0,0 0 0 0 440.3943,364.1782 L440.3943,293.3541 L430.3943,283.3541 L225.3042,283.3541 A0,0 0 0 0 225.3042,283.3541" fill="#D5E8D4" filter="url(#f3k4ztjtq5pha)" style="stroke:#181818;stroke-width:0.5;"/><path d="M430.3943,283.3541 L430.3943,293.3541 L440.3943,293.3541 L430.3943,283.3541" fill="#D5E8D4" style="stroke:#181818;stroke-width:0.5;"/><text fill="#000000" font-family="Segoe UI" font-size="13" font-weight="bold" lengthAdjust="spacing" textLength="145.6391" x="231.3042" y="302.2512">&#1057;&#1080;&#1089;&#1090;&#1077;&#1084;&#1085;&#1099;&#1077; &#1076;&#1077;&#1081;&#1089;&#1090;&#1074;&#1080;&#1103;:</text><text fill="#000000" font-family="Segoe UI" font-size="13" lengthAdjust="spacing" textLength="171.1712" x="231.3042" y="319.9572">- &#1043;&#1077;&#1085;&#1077;&#1088;&#1072;&#1094;&#1080;&#1103; &#1085;&#1086;&#1084;&#1077;&#1088;&#1072; &#1079;&#1072;&#1082;&#1072;&#1079;&#1072;</text><text fill="#000000" font-family="Segoe UI" font-size="13" lengthAdjust="spacing" textLength="194.0902" x="231.3042" y="337.6632">- &#1054;&#1090;&#1087;&#1088;&#1072;&#1074;&#1082;&#1072; email-&#1091;&#1074;&#1077;&#1076;&#1086;&#1084;&#1083;&#1077;&#1085;&#1080;&#1103;</text><text fill="#000000" font-family="Segoe UI" font-size="13" lengthAdjust="spacing" textLength="147.2252" x="231.3042" y="355.3692">- &#1057;&#1086;&#1079;&#1076;&#1072;&#1085;&#1080;&#1077; &#1079;&#1072;&#1087;&#1080;&#1089;&#1080; &#1074; &#1041;&#1044;</text><rect fill="#F1F1F1" filter="url(#f3k4ztjtq5pha)" height="37.706" rx="7.5" ry="7.5" style="stroke:#181818;stroke-width:0.5;" width="194.3042" x="11" y="304.9132"/><text fill="#000000" font-family="Segoe UI" font-size="13" lengthAdjust="spacing" textLength="3.38" x="21" y="328.8102">&#160;</text><text fill="#000000" font-family="Segoe UI" font-size="13" font-weight="bold" lengthAdjust="spacing" textLength="170.9241" x="24.38" y="328.8102">4. &#1055;&#1086;&#1076;&#1090;&#1074;&#1077;&#1088;&#1078;&#1076;&#1077;&#1085;&#1080;&#1077; &#1079;&#1072;&#1082;&#1072;&#1079;&#1072;</text><path d="M217.3611,391.8842 L217.3611,428.2963 L197.3611,432.2963 L217.3611,436.2963 L217.3611,472.7083 A0,0 0 0 0 217.3611,472.7083 L507.9294,472.7083 A0,0 0 0 0 507.9294,472.7083 L507.9294,401.8842 L497.9294,391.8842 L217.3611,391.8842 A0,0 0 0 0 217.3611,391.8842" fill="#CCE5FF" filter="url(#f3k4ztjtq5pha)" style="stroke:#181818;stroke-width:0.5;"/><path d="M497.9294,391.8842 L497.9294,401.8842 L507.9294,401.8842 L497.9294,391.8842" fill="#CCE5FF" style="stroke:#181818;stroke-width:0.5;"/><text fill="#000000" font-family="Segoe UI" font-size="13" font-weight="bold" lengthAdjust="spacing" textLength="83.8761" x="223.3611" y="410.7812">&#1048;&#1085;&#1090;&#1077;&#1075;&#1088;&#1072;&#1094;&#1080;&#1103;:</text><text fill="#000000" font-family="Segoe UI" font-size="13" lengthAdjust="spacing" textLength="269.5682" x="223.3611" y="428.4873">- &#1060;&#1086;&#1088;&#1084;&#1080;&#1088;&#1086;&#1074;&#1072;&#1085;&#1080;&#1077; &#1090;&#1088;&#1072;&#1085;&#1089;&#1087;&#1086;&#1088;&#1090;&#1085;&#1086;&#1081; &#1085;&#1072;&#1082;&#1083;&#1072;&#1076;&#1085;&#1086;&#1081;</text><text fill="#000000" font-family="Segoe UI" font-size="13" lengthAdjust="spacing" textLength="253.6302" x="223.3611" y="446.1933">- &#1057;&#1080;&#1085;&#1093;&#1088;&#1086;&#1085;&#1080;&#1079;&#1072;&#1094;&#1080;&#1103; &#1089; API &#1089;&#1083;&#1091;&#1078;&#1073;&#1099; &#1076;&#1086;&#1089;&#1090;&#1072;&#1074;&#1082;&#1080;</text><text fill="#000000" font-family="Segoe UI" font-size="13" lengthAdjust="spacing" textLength="200.9672" x="223.3611" y="463.8993">- &#1054;&#1073;&#1085;&#1086;&#1074;&#1083;&#1077;&#1085;&#1080;&#1077; &#1089;&#1090;&#1072;&#1090;&#1091;&#1089;&#1072; &#1074; &#1089;&#1080;&#1089;&#1090;&#1077;&#1084;&#1077;</text><rect fill="#F1F1F1" filter="url(#f3k4ztjtq5pha)" height="37.706" rx="7.5" ry="7.5" style="stroke:#181818;stroke-width:0.5;" width="178.4181" x="18.943" y="413.4433"/><text fill="#000000" font-family="Segoe UI" font-size="13" lengthAdjust="spacing" textLength="3.38" x="28.943" y="437.3403">&#160;</text><text fill="#000000" font-family="Segoe UI" font-size="13" font-weight="bold" lengthAdjust="spacing" textLength="155.0381" x="32.323" y="437.3403">5. &#1055;&#1077;&#1088;&#1077;&#1076;&#1072;&#1095;&#1072; &#1074; &#1076;&#1086;&#1089;&#1090;&#1072;&#1074;&#1082;&#1091;</text><path d="M207.6501,500.4143 L207.6501,545.6794 L187.6501,549.6794 L207.6501,553.6794 L207.6501,598.9444 A0,0 0 0 0 207.6501,598.9444 L369.1933,598.9444 A0,0 0 0 0 369.1933,598.9444 L369.1933,510.4143 L359.1933,500.4143 L207.6501,500.4143 A0,0 0 0 0 207.6501,500.4143" fill="#E5FFCC" filter="url(#f3k4ztjtq5pha)" style="stroke:#181818;stroke-width:0.5;"/><path d="M359.1933,500.4143 L359.1933,510.4143 L369.1933,510.4143 L359.1933,500.4143" fill="#E5FFCC" style="stroke:#181818;stroke-width:0.5;"/><text fill="#000000" font-family="Segoe UI" font-size="13" font-weight="bold" lengthAdjust="spacing" textLength="70.967" x="213.6501" y="519.3113">&#1042;&#1072;&#1088;&#1080;&#1072;&#1085;&#1090;&#1099;:</text><text fill="#000000" font-family="Segoe UI" font-size="13" lengthAdjust="spacing" textLength="140.5431" x="213.6501" y="537.0173">- &#1050;&#1091;&#1088;&#1100;&#1077;&#1088;&#1089;&#1082;&#1072;&#1103; &#1076;&#1086;&#1089;&#1090;&#1072;&#1074;&#1082;&#1072;</text><text fill="#000000" font-family="Segoe UI" font-size="13" lengthAdjust="spacing" textLength="96.0701" x="213.6501" y="554.7234">- &#1055;&#1091;&#1085;&#1082;&#1090; &#1074;&#1099;&#1076;&#1072;&#1095;&#1080;</text><text fill="#000000" font-family="Segoe UI" font-size="13" lengthAdjust="spacing" textLength="67.7561" x="213.6501" y="572.4294">- &#1055;&#1086;&#1089;&#1090;&#1072;&#1084;&#1072;&#1090;</text><text fill="#000000" font-family="Segoe UI" font-size="13" lengthAdjust="spacing" textLength="79.4171" x="213.6501" y="590.1354">- &#1057;&#1072;&#1084;&#1086;&#1074;&#1099;&#1074;&#1086;&#1079;</text><rect fill="#F1F1F1" filter="url(#f3k4ztjtq5pha)" height="37.706" rx="7.5" ry="7.5" style="stroke:#181818;stroke-width:0.5;" width="158.9961" x="28.654" y="530.8263"/><text fill="#000000" font-family="Segoe UI" font-size="13" lengthAdjust="spacing" textLength="3.38" x="38.654" y="554.7234">&#160;</text><text fill="#000000" font-family="Segoe UI" font-size="13" font-weight="bold" lengthAdjust="spacing" textLength="135.6161" x="42.034" y="554.7234">6. &#1044;&#1086;&#1089;&#1090;&#1072;&#1074;&#1082;&#1072; &#1082;&#1083;&#1080;&#1077;&#1085;&#1090;&#1091;</text><ellipse cx="108.1521" cy="629.9444" fill="none" filter="url(#f3k4ztjtq5pha)" rx="11" ry="11" style="stroke:#222222;stroke-width:1;"/><ellipse cx="108.1521" cy="629.9444" fill="#222222" rx="6" ry="6" style="stroke:#222222;stroke-width:1;"/><path d="M702.018,283.3541 L702.018,328.6192 L682.018,332.6192 L702.018,336.6192 L702.018,381.8842 A0,0 0 0 0 702.018,381.8842 L902.4441,381.8842 A0,0 0 0 0 902.4441,381.8842 L902.4441,293.3541 L892.4441,283.3541 L702.018,283.3541 A0,0 0 0 0 702.018,283.3541" fill="#F8CECC" filter="url(#f3k4ztjtq5pha)" style="stroke:#181818;stroke-width:0.5;"/><path d="M892.4441,283.3541 L892.4441,293.3541 L902.4441,293.3541 L892.4441,283.3541" fill="#F8CECC" style="stroke:#181818;stroke-width:0.5;"/><text fill="#000000" font-family="Segoe UI" font-size="13" font-weight="bold" lengthAdjust="spacing" textLength="149.9812" x="708.018" y="302.2512">&#1042;&#1086;&#1079;&#1084;&#1086;&#1078;&#1085;&#1099;&#1077; &#1087;&#1088;&#1080;&#1095;&#1080;&#1085;&#1099;:</text><text fill="#000000" font-family="Segoe UI" font-size="13" lengthAdjust="spacing" textLength="149.3441" x="708.018" y="319.9572">- &#1053;&#1077;&#1076;&#1086;&#1089;&#1090;&#1072;&#1090;&#1086;&#1095;&#1085;&#1086; &#1089;&#1088;&#1077;&#1076;&#1089;&#1090;&#1074;</text><text fill="#000000" font-family="Segoe UI" font-size="13" lengthAdjust="spacing" textLength="84.4611" x="708.018" y="337.6632">- &#1054;&#1090;&#1082;&#1072;&#1079; &#1073;&#1072;&#1085;&#1082;&#1072;</text><text fill="#000000" font-family="Segoe UI" font-size="13" lengthAdjust="spacing" textLength="140.2052" x="708.018" y="355.3692">- &#1058;&#1077;&#1093;&#1085;&#1080;&#1095;&#1077;&#1089;&#1082;&#1072;&#1103; &#1086;&#1096;&#1080;&#1073;&#1082;&#1072;</text><text fill="#000000" font-family="Segoe UI" font-size="13" lengthAdjust="spacing" textLength="179.4261" x="708.018" y="373.0752">- &#1048;&#1089;&#1090;&#1077;&#1082; &#1089;&#1088;&#1086;&#1082; &#1076;&#1077;&#1081;&#1089;&#1090;&#1074;&#1080;&#1103; &#1082;&#1072;&#1088;&#1090;&#1099;</text><rect fill="#F1F1F1" filter="url(#f3k4ztjtq5pha)" height="37.706" rx="7.5" ry="7.5" style="stroke:#181818;stroke-width:0.5;" width="146.3861" x="535.6319" y="313.7662"/><text fill="#000000" font-family="Segoe UI" font-size="13" lengthAdjust="spacing" textLength="3.38" x="545.6319" y="337.6632">&#160;</text><text fill="#000000" font-family="Segoe UI" font-size="13" font-weight="bold" lengthAdjust="spacing" textLength="123.0061" x="549.0119" y="337.6632">4. &#1054;&#1096;&#1080;&#1073;&#1082;&#1072; &#1086;&#1087;&#1083;&#1072;&#1090;&#1099;</text><path d="M709.7205,409.5902 L709.7205,446.0023 L689.7205,450.0023 L709.7205,454.0023 L709.7205,490.4143 A0,0 0 0 0 709.7205,490.4143 L1046.0487,490.4143 A0,0 0 0 0 1046.0487,490.4143 L1046.0487,419.5902 L1036.0487,409.5902 L709.7205,409.5902 A0,0 0 0 0 709.7205,409.5902" fill="#FFDDCC" filter="url(#f3k4ztjtq5pha)" style="stroke:#181818;stroke-width:0.5;"/><path d="M1036.0487,409.5902 L1036.0487,419.5902 L1046.0487,419.5902 L1036.0487,409.5902" fill="#FFDDCC" style="stroke:#181818;stroke-width:0.5;"/><text fill="#000000" font-family="Segoe UI" font-size="13" font-weight="bold" lengthAdjust="spacing" textLength="74.3081" x="715.7205" y="428.4873">&#1057;&#1086;&#1089;&#1090;&#1086;&#1103;&#1085;&#1080;&#1077;:</text><text fill="#000000" font-family="Segoe UI" font-size="13" lengthAdjust="spacing" textLength="127.1271" x="715.7205" y="446.1933">- &#1058;&#1086;&#1074;&#1072;&#1088;&#1099; &#1089;&#1086;&#1093;&#1088;&#1072;&#1085;&#1077;&#1085;&#1099;</text><text fill="#000000" font-family="Segoe UI" font-size="13" lengthAdjust="spacing" textLength="241.0332" x="715.7205" y="463.8993">- &#1044;&#1072;&#1085;&#1085;&#1099;&#1077; &#1092;&#1086;&#1088;&#1084;&#1099; &#1095;&#1072;&#1089;&#1090;&#1080;&#1095;&#1085;&#1086; &#1079;&#1072;&#1087;&#1086;&#1083;&#1085;&#1077;&#1085;&#1099;</text><text fill="#000000" font-family="Segoe UI" font-size="13" lengthAdjust="spacing" textLength="315.3282" x="715.7205" y="481.6053">- &#1055;&#1088;&#1077;&#1076;&#1083;&#1086;&#1078;&#1077;&#1085;&#1080;&#1077; &#1072;&#1083;&#1100;&#1090;&#1077;&#1088;&#1085;&#1072;&#1090;&#1080;&#1074;&#1085;&#1099;&#1093; &#1089;&#1087;&#1086;&#1089;&#1086;&#1073;&#1086;&#1074; &#1086;&#1087;&#1083;&#1072;&#1090;&#1099;</text><rect fill="#F1F1F1" filter="url(#f3k4ztjtq5pha)" height="37.706" rx="7.5" ry="7.5" style="stroke:#181818;stroke-width:0.5;" width="161.7911" x="527.9294" y="431.1493"/><text fill="#000000" font-family="Segoe UI" font-size="13" lengthAdjust="spacing" textLength="3.38" x="537.9294" y="455.0463">&#160;</text><text fill="#000000" font-family="Segoe UI" font-size="13" font-weight="bold" lengthAdjust="spacing" textLength="138.4111" x="541.3094" y="455.0463">5. &#1042;&#1086;&#1079;&#1074;&#1088;&#1072;&#1090; &#1074; &#1082;&#1086;&#1088;&#1079;&#1080;&#1085;&#1091;</text><ellipse cx="608.8249" cy="529.1203" fill="none" filter="url(#f3k4ztjtq5pha)" rx="11" ry="11" style="stroke:#222222;stroke-width:1;"/><ellipse cx="608.8249" cy="529.1203" fill="#222222" rx="6" ry="6" style="stroke:#222222;stroke-width:1;"/><line style="stroke:#444444;stroke-width:1;" x1="358.4885" x2="358.4885" y1="30" y2="61.559"/><polygon fill="#444444" points="354.4885,51.559,358.4885,61.559,362.4885,51.559,358.4885,55.559" style="stroke:#444444;stroke-width:1;"/><line style="stroke:#444444;stroke-width:1;" x1="358.4885" x2="358.4885" y1="99.265" y2="161.2361"/><polygon fill="#444444" points="354.4885,151.2361,358.4885,161.2361,362.4885,151.2361,358.4885,155.2361" style="stroke:#444444;stroke-width:1;"/><line style="stroke:#444444;stroke-width:1;" x1="108.1521" x2="108.1521" y1="342.6192" y2="413.4433"/><polygon fill="#444444" points="104.1521,403.4433,108.1521,413.4433,112.1521,403.4433,108.1521,407.4433" style="stroke:#444444;stroke-width:1;"/><line style="stroke:#444444;stroke-width:1;" x1="108.1521" x2="108.1521" y1="451.1493" y2="530.8263"/><polygon fill="#444444" points="104.1521,520.8263,108.1521,530.8263,112.1521,520.8263,108.1521,524.8263" style="stroke:#444444;stroke-width:1;"/><line style="stroke:#444444;stroke-width:1;" x1="108.1521" x2="108.1521" y1="568.5324" y2="618.9444"/><polygon fill="#444444" points="104.1521,608.9444,108.1521,618.9444,112.1521,608.9444,108.1521,612.9444" style="stroke:#444444;stroke-width:1;"/><line style="stroke:#444444;stroke-width:1;" x1="608.8249" x2="608.8249" y1="351.4722" y2="431.1493"/><polygon fill="#444444" points="604.8249,421.1493,608.8249,431.1493,612.8249,421.1493,608.8249,425.1493" style="stroke:#444444;stroke-width:1;"/><line style="stroke:#444444;stroke-width:1;" x1="608.8249" x2="608.8249" y1="468.8553" y2="518.1203"/><polygon fill="#444444" points="604.8249,508.1203,608.8249,518.1203,612.8249,508.1203,608.8249,512.1203" style="stroke:#444444;stroke-width:1;"/><line style="stroke:#444444;stroke-width:1;" x1="280.6369" x2="108.1521" y1="261.3541" y2="261.3541"/><line style="stroke:#444444;stroke-width:1;" x1="108.1521" x2="108.1521" y1="261.3541" y2="304.9132"/><polygon fill="#444444" points="104.1521,294.9132,108.1521,304.9132,112.1521,294.9132,108.1521,298.9132" style="stroke:#444444;stroke-width:1;"/><line style="stroke:#444444;stroke-width:1;" x1="436.3401" x2="608.8249" y1="261.3541" y2="261.3541"/><line style="stroke:#444444;stroke-width:1;" x1="608.8249" x2="608.8249" y1="261.3541" y2="313.7662"/><polygon fill="#444444" points="604.8249,303.7662,608.8249,313.7662,612.8249,303.7662,608.8249,307.7662" style="stroke:#444444;stroke-width:1;"/><line style="stroke:#444444;stroke-width:1;" x1="358.4885" x2="358.4885" y1="198.9421" y2="249.3541"/><polygon fill="#444444" points="354.4885,239.3541,358.4885,249.3541,362.4885,239.3541,358.4885,243.3541" style="stroke:#444444;stroke-width:1;"/><!--SRC=[TLLjQzDG5FwUNt7GBrfGcTj4L1Hj6_2B2E8Fw6os5Rj4qWpHJrlhLAWmNmQAuChK7n1hQsEtP7_Xtd_aSyvDqgIhWxLDxdbxdlESSpjFM-wpXj_OeYtFzPvi-jwMG-kDTiUnElbHPxFHz9wtt0qA_EtYGTDPRsot0zjpWmSDE9vxv6nu3Zs-VswnqQFMIuUMbWk7lhVjDfzulklujBHQEBZh-zxpgjVsV3g_8d_pXn8mUD5sQCrhDnUUIhebo-e43J-mRb2bidIPr85Ar2yLgg4wLcCLgqYDINVnSgX2lSFVbSfDo_K2X_pMncP0vssxVgzQiuXkhTs6-rZzrRlm6Af8xvCwXSknVgScQOWk38xr_erRLzPkm-SIgO-wZuo9tfdBOqv_g2cgcU3Vr89714JiDsgSvWcDvO3TzAuwmMSNqM33yNvBp4Jz9PZtS7gY-vRZDeanM8BxAd0VwbTS0yvdk2LjcduUTVsQlMpRAUhFi16WAjRxS4SATXz9rJ4_5F1-XM6CqX0Qdp7WWgO8hx82GlsQkJFMxzK8Bm6LmoM2c9ipLP4vF-B4G8sk4JvEKGD81iGy5n0p8dP4f4X5uB00JVSARBJMwKAbiinyPA5KIBg71ASeuYsNUwTIkKZ1fkFI1RGxl8XCJE8Ad0P8DvAUZ97g3oh-7vL4HJ9hg_NhjHMyD7GU0VwkAEN4i4SIgQ2hZ4u1-KcoSCQKES8ZuvPNfTIPoo42dVAfK1cIizLejIz17gYSUPx9GFgGCfqWn6Ycn8bq7QKofKDI7zG1R7CoYL9cLeKPBePZXr1kAFQbVkhUMLggrVggQCpGyaMQE5Q_PqXBFFnCzHEP-SaBvMdW1saYJ4HrF13SJS17cr6Bl9fXPK7kII0ECicfXH3lFhoFBqnn3ot-fVkBb6bOnbp7KafXbuWTIc9D2G_CNzxkyK86hvd5LCWHaXGU6MKl8e-fgrPpyZwcwW_5lbyYxYkAsS6EGejGpDHCP1bJhfm1KCSykIWTqZJzp14FSYSUu-wCJdwHY0VleiaPb9t0UsOvk5amLDzGIBSuLeSOl0XS2kp2Z9y5RL-lrakWMRAS-KysIAnwNfxStp8BtupqimRXrnlk7dTCb6kchpX1CbGarqLSvEWx0Ep9yCYIpXXDPZ0ooozfuwScIyARQJH_XR3xJhhJ5a-NmJcKkUZAR4rb5YO2Su4uRBjMA_1qbC9EiBr5fYLYlcUt4gJEcrRcWY6pzlgPrS5isLEsoja1qownevJET6t8PL6EC4WtnB7qAz-S8T-Vp1AEO-bCX7BWf_Se7MbP_rpb_1MmI6HkixLk_GC0]--></g></svg>